<?xml version="1.0" encoding="UTF-8"?>
<svg width="120" height="40" viewBox="0 0 120 40" fill="none" xmlns="http://www.w3.org/2000/svg">
  <path d="M35.8824 20C35.8824 13.3726 41.255 8 47.8824 8H72.1176C78.745 8 84.1176 13.3726 84.1176 20C84.1176 26.6274 78.745 32 72.1176 32H47.8824C41.255 32 35.8824 26.6274 35.8824 20Z" fill="#2BC4E9"/>
  <path d="M51.7647 15.2941L47.8824 24.7059H51.0588L51.7647 23.2941H56.3529L57.0588 24.7059H60.2353L56.3529 15.2941H51.7647ZM52.4706 21.1176L54.0588 17.4706L55.6471 21.1176H52.4706Z" fill="white"/>
  <path d="M61.7647 15.2941V24.7059H64.9412V21.1176H67.4118L69.0001 24.7059H72.1177L70.2942 20.7059C71.3531 20.4706 72.1177 19.6471 72.1177 18.4706C72.1177 16.5882 70.5883 15.2941 68.7059 15.2941H61.7647ZM64.9412 18.4706V17.4706H68.3531C68.8236 17.4706 69.0589 17.7059 69.0589 18.1176C69.0589 18.5294 68.8236 18.7647 68.3531 18.7647H64.9412V18.4706Z" fill="white"/>
</svg>
