<?xml version="1.0" encoding="UTF-8"?>
<svg width="120" height="40" viewBox="0 0 120 40" fill="none" xmlns="http://www.w3.org/2000/svg">
  <path d="M28.4444 20C28.4444 13.3726 33.8171 8 40.4444 8H79.5556C86.1829 8 91.5556 13.3726 91.5556 20C91.5556 26.6274 86.1829 32 79.5556 32H40.4444C33.8171 32 28.4444 26.6274 28.4444 20Z" fill="#CC092F"/>
  <path d="M45.037 15.5556V24.4444H47.4074V21.4815H49.7778L51.8519 24.4444H54.5185L52.1481 21.1852C53.4815 20.8889 54.2222 19.8519 54.2222 18.5185C54.2222 16.7407 52.8889 15.5556 51.1111 15.5556H45.037ZM47.4074 17.4815H50.8148C51.4815 17.4815 51.8519 17.8519 51.8519 18.5185C51.8519 19.1852 51.4815 19.5556 50.8148 19.5556H47.4074V17.4815Z" fill="white"/>
  <path d="M55.5556 15.5556V24.4444H61.6296C63.4074 24.4444 64.7407 23.2593 64.7407 21.4815C64.7407 20.1481 64 19.1111 62.6667 18.8148L65.037 15.5556H62.3704L60.2963 18.5185H57.9259V15.5556H55.5556ZM57.9259 20.4444H61.3333C62 20.4444 62.3704 20.8148 62.3704 21.4815C62.3704 22.1481 62 22.5185 61.3333 22.5185H57.9259V20.4444Z" fill="white"/>
  <path d="M66.6667 15.5556V24.4444H74.8148V22.5185H69.037V20.7407H74.5185V18.8148H69.037V17.4815H74.8148V15.5556H66.6667Z" fill="white"/>
</svg>
