<?xml version="1.0" encoding="UTF-8"?>
<svg width="120" height="40" viewBox="0 0 120 40" fill="none" xmlns="http://www.w3.org/2000/svg">
  <path d="M28.4444 20C28.4444 13.3726 33.8171 8 40.4444 8H79.5556C86.1829 8 91.5556 13.3726 91.5556 20C91.5556 26.6274 86.1829 32 79.5556 32H40.4444C33.8171 32 28.4444 26.6274 28.4444 20Z" fill="#4CAF50"/>
  <path d="M44.0741 15.5556V24.4444H46.4444V21.4815H48.8148L50.8889 24.4444H53.5556L51.1852 21.1852C52.5185 20.8889 53.2593 19.8519 53.2593 18.5185C53.2593 16.7407 51.9259 15.5556 50.1481 15.5556H44.0741ZM46.4444 17.4815H49.8519C50.5185 17.4815 50.8889 17.8519 50.8889 18.5185C50.8889 19.1852 50.5185 19.5556 49.8519 19.5556H46.4444V17.4815Z" fill="white"/>
  <path d="M55.5556 15.5556V24.4444H63.7037V22.5185H57.9259V20.7407H63.4074V18.8148H57.9259V17.4815H63.7037V15.5556H55.5556Z" fill="white"/>
  <path d="M66.6667 15.5556V24.4444H69.037V21.4815H71.4074L73.4815 24.4444H76.1481L73.7778 21.1852C75.1111 20.8889 75.8519 19.8519 75.8519 18.5185C75.8519 16.7407 74.5185 15.5556 72.7407 15.5556H66.6667ZM69.037 17.4815H72.4444C73.1111 17.4815 73.4815 17.8519 73.4815 18.5185C73.4815 19.1852 73.1111 19.5556 72.4444 19.5556H69.037V17.4815Z" fill="white"/>
</svg>
