<?xml version="1.0" encoding="UTF-8"?>
<svg width="120" height="40" viewBox="0 0 120 40" fill="none" xmlns="http://www.w3.org/2000/svg">
  <path d="M31.0584 9.89655C30.9546 9.89655 30.8509 9.84483 30.7731 9.76552L28.1768 7.16897C28.0731 7.06552 28.0212 6.93103 28.0212 6.79655C28.0212 6.66207 28.0731 6.52759 28.1768 6.42414L30.7731 3.82759C30.9287 3.67241 31.1881 3.67241 31.3437 3.82759C31.4993 3.98276 31.4993 4.24138 31.3437 4.39655L29.0584 6.79655L31.3437 9.19655C31.4993 9.35172 31.4993 9.61034 31.3437 9.76552C31.2659 9.84483 31.1622 9.89655 31.0584 9.89655Z" fill="#009A44"/>
  <path d="M35.9416 9.89655C35.8378 9.89655 35.7341 9.84483 35.6563 9.76552C35.5007 9.61034 35.5007 9.35172 35.6563 9.19655L37.9416 6.79655L35.6563 4.39655C35.5007 4.24138 35.5007 3.98276 35.6563 3.82759C35.8119 3.67241 36.0713 3.67241 36.2269 3.82759L38.8232 6.42414C38.9269 6.52759 38.9788 6.66207 38.9788 6.79655C38.9788 6.93103 38.9269 7.06552 38.8232 7.16897L36.2269 9.76552C36.1491 9.84483 36.0454 9.89655 35.9416 9.89655Z" fill="#009A44"/>
  <path d="M33.5 11.2414C33.4222 11.2414 33.3444 11.2155 33.2666 11.1638C33.0591 11.0345 32.9813 10.7759 33.1109 10.569L36.4453 4.77586C36.575 4.56897 36.8344 4.49138 37.0419 4.62069C37.2494 4.75 37.3272 5.00862 37.1975 5.21552L33.8631 11.0086C33.7853 11.1638 33.6428 11.2414 33.5 11.2414Z" fill="#009A44"/>
  <path d="M48.7898 8.20688H46.0898V4.31035H48.7898C49.6398 4.31035 50.3148 5.00862 50.3148 5.84483V6.67241C50.3148 7.50862 49.6398 8.20688 48.7898 8.20688ZM48.7898 3.31035H45.0898C44.9342 3.31035 44.8048 3.44483 44.8048 3.6V8.91379C44.8048 9.06897 44.9342 9.20345 45.0898 9.20345H48.7898C50.1898 9.20345 51.3148 8.07759 51.3148 6.67241V5.84483C51.3148 4.43966 50.1898 3.31035 48.7898 3.31035Z" fill="#009A44"/>
  <path d="M57.1824 3.31035H56.1824C54.7824 3.31035 53.6574 4.43966 53.6574 5.84483V6.67241C53.6574 8.07759 54.7824 9.20345 56.1824 9.20345H57.1824C58.5824 9.20345 59.7074 8.07759 59.7074 6.67241V5.84483C59.7074 4.43966 58.5824 3.31035 57.1824 3.31035ZM58.7074 6.67241C58.7074 7.50862 58.0324 8.20688 57.1824 8.20688H56.1824C55.3324 8.20688 54.6574 7.50862 54.6574 6.67241V5.84483C54.6574 5.00862 55.3324 4.31035 56.1824 4.31035H57.1824C58.0324 4.31035 58.7074 5.00862 58.7074 5.84483V6.67241Z" fill="#009A44"/>
  <path d="M65.0676 3.31035H61.3676C61.212 3.31035 61.0826 3.44483 61.0826 3.6V8.91379C61.0826 9.06897 61.212 9.20345 61.3676 9.20345H65.0676C65.2231 9.20345 65.3526 9.06897 65.3526 8.91379V8.48276C65.3526 8.32759 65.2231 8.19311 65.0676 8.19311H62.3676V6.67241H64.4898C64.6453 6.67241 64.7748 6.53793 64.7748 6.38276V5.95172C64.7748 5.79655 64.6453 5.66207 64.4898 5.66207H62.3676V4.31035H65.0676C65.2231 4.31035 65.3526 4.17586 65.3526 4.02069V3.58966C65.3526 3.44483 65.2231 3.31035 65.0676 3.31035Z" fill="#009A44"/>
  <path d="M72.3426 3.31035H71.3426C69.9426 3.31035 68.8176 4.43966 68.8176 5.84483V8.91379C68.8176 9.06897 68.947 9.20345 69.1026 9.20345H69.5324C69.6879 9.20345 69.8176 9.06897 69.8176 8.91379V6.93103H72.3426C73.7426 6.93103 74.8676 5.80517 74.8676 4.4V3.6C74.8676 3.44483 74.7381 3.31035 74.5826 3.31035H72.3426ZM73.8676 4.4C73.8676 5.23621 73.1926 5.93448 72.3426 5.93448H69.8176V5.84483C69.8176 5.00862 70.4926 4.31035 71.3426 4.31035H73.8676V4.4Z" fill="#009A44"/>
  <path d="M81.2324 3.31035H77.5324C77.3769 3.31035 77.2474 3.44483 77.2474 3.6V8.91379C77.2474 9.06897 77.3769 9.20345 77.5324 9.20345H77.9621C78.1176 9.20345 78.2474 9.06897 78.2474 8.91379V6.67241H80.3695C80.525 6.67241 80.6545 6.53793 80.6545 6.38276V5.95172C80.6545 5.79655 80.525 5.66207 80.3695 5.66207H78.2474V4.31035H81.2324C81.3879 4.31035 81.5174 4.17586 81.5174 4.02069V3.58966C81.5174 3.44483 81.3879 3.31035 81.2324 3.31035Z" fill="#009A44"/>
  <path d="M87.9074 3.31035H83.9074C83.7519 3.31035 83.6224 3.44483 83.6224 3.6V8.91379C83.6224 9.06897 83.7519 9.20345 83.9074 9.20345H84.3371C84.4926 9.20345 84.6224 9.06897 84.6224 8.91379V6.93103H87.1474C87.3029 6.93103 87.4324 6.79655 87.4324 6.64138V6.21034C87.4324 6.05517 87.3029 5.92069 87.1474 5.92069H84.6224V4.31035H87.9074C88.0629 4.31035 88.1924 4.17586 88.1924 4.02069V3.58966C88.1924 3.44483 88.0629 3.31035 87.9074 3.31035Z" fill="#009A44"/>
  <path d="M94.5824 3.31035H93.5824C92.1824 3.31035 91.0574 4.43966 91.0574 5.84483V6.67241C91.0574 8.07759 92.1824 9.20345 93.5824 9.20345H94.5824C95.9824 9.20345 97.1074 8.07759 97.1074 6.67241V5.84483C97.1074 4.43966 95.9824 3.31035 94.5824 3.31035ZM96.1074 6.67241C96.1074 7.50862 95.4324 8.20688 94.5824 8.20688H93.5824C92.7324 8.20688 92.0574 7.50862 92.0574 6.67241V5.84483C92.0574 5.00862 92.7324 4.31035 93.5824 4.31035H94.5824C95.4324 4.31035 96.1074 5.00862 96.1074 5.84483V6.67241Z" fill="#009A44"/>
</svg>
